<svg width="588" height="116" viewBox="0 0 588 116" fill="none" xmlns="http://www.w3.org/2000/svg">
<path d="M21.8543 82.4244V0.057373L30.2597 0.0577242L38.6652 0.057373V82.4244H21.8543ZM0 15.9064V0.0577242H60.5195V15.9064H30.2597H0Z" fill="#1E1E1E"/>
<path d="M72.1577 82.4244V1.75565H88.1553V82.4244H72.1577ZM88.1553 36.4008L82.1117 33.8533C82.1117 23.5504 84.6003 15.342 89.5773 9.22813C94.5543 3.11429 101.724 0.057373 111.085 0.057373C115.351 0.057373 119.202 0.793289 122.639 2.26514C126.075 3.62377 127.431 4.90249 130.35 7.32505L121.75 19.5877C119.973 17.7762 118.017 16.4742 115.884 15.6816C113.751 14.8891 111.263 14.4928 108.419 14.4928C102.494 14.4928 97.6353 16.3043 93.8433 19.9274C90.0513 23.5504 88.1553 29.0415 88.1553 36.4008Z" fill="#1E1E1E"/>
<path d="M244.519 82.4244L207.162 0.057373H224.298L254.287 69.5925H244.348L274.507 0.057373H290.958L253.601 82.4244H244.519Z" fill="#1E1E1E"/>
<path d="M325.489 82.4244C317.737 82.4244 310.749 80.6495 304.525 77.0997C298.302 73.4389 293.388 68.5025 289.785 62.2903C286.182 56.0781 284.38 49.0339 284.38 41.1577C284.38 33.3925 286.127 26.4037 289.621 20.1915C293.225 13.9793 298.029 9.09834 304.034 5.54851C310.149 1.88775 316.973 0.057373 324.507 0.057373C331.713 0.057373 338.046 1.72135 343.505 5.04931C349.074 8.37727 353.387 12.981 356.444 18.8604C359.61 24.7398 361.194 31.3957 361.194 38.8281C361.194 39.9374 361.139 41.1577 361.03 42.4889C360.921 43.7091 360.702 45.1513 360.375 46.8152H294.699V34.3354H352.513L347.108 39.1609C347.108 33.8362 346.18 29.3434 344.324 25.6827C342.468 21.911 339.848 19.0267 336.463 17.03C333.078 14.9223 328.983 13.8684 324.179 13.8684C319.157 13.8684 314.734 14.9777 310.913 17.1964C307.091 19.415 304.143 22.5211 302.069 26.5147C299.994 30.5082 298.957 35.2228 298.957 40.6585C298.957 46.2051 300.049 51.0861 302.233 55.3015C304.416 59.406 307.528 62.6231 311.568 64.9526C315.608 67.1713 320.248 68.2806 325.489 68.2806C329.857 68.2806 333.842 67.5041 337.445 65.951C341.158 64.398 344.324 62.0684 346.945 58.9623L356.444 68.7798C352.732 73.2171 348.146 76.6005 342.686 78.9301C337.336 81.2596 331.604 82.4244 325.489 82.4244Z" fill="#1E1E1E"/>
<path d="M370.6 82.4243L370.6 2.41064L384.051 2.41064V82.4243H370.6ZM380.535 82.4243V70.3011H424.137V82.4243H380.535Z" fill="#1E1E1E"/>
<path d="M463.707 82.4243C456.261 82.4243 449.559 80.6463 443.602 77.0901C437.645 73.5339 432.912 68.7385 429.402 62.7038C425.891 56.5613 424.136 49.7184 424.136 42.175C424.136 34.7394 425.891 28.0581 429.402 22.1312C432.912 16.0965 437.645 11.3011 443.602 7.74489C449.559 4.18873 456.261 2.41064 463.707 2.41064C471.046 2.41064 477.695 4.18873 483.651 7.74489C489.715 11.1933 494.501 15.9348 498.012 21.9695C501.522 28.0042 503.277 34.7394 503.277 42.175C503.277 49.7184 501.522 56.5613 498.012 62.7038C494.501 68.7385 489.715 73.5339 483.651 77.0901C477.695 80.6463 471.046 82.4243 463.707 82.4243ZM463.707 68.3613C468.493 68.3613 472.748 67.2298 476.471 64.9668C480.194 62.7038 483.12 59.6326 485.247 55.7531C487.374 51.7659 488.438 47.2399 488.438 42.175C488.438 37.2179 487.321 32.7997 485.087 28.9202C482.96 25.0408 480.035 22.0234 476.312 19.8682C472.695 17.6052 468.493 16.4737 463.707 16.4737C458.92 16.4737 454.665 17.6052 450.942 19.8682C447.219 22.0234 444.294 25.0408 442.166 28.9202C440.039 32.7997 438.975 37.2179 438.975 42.175C438.975 47.2399 440.039 51.7659 442.166 55.7531C444.294 59.6326 447.219 62.7038 450.942 64.9668C454.665 67.2298 458.92 68.3613 463.707 68.3613Z" fill="#1E1E1E"/>
<path d="M545.682 115.371C537.624 115.371 530.45 113.876 524.158 110.885C517.977 107.894 513.01 103.685 509.257 98.2569L518.86 88.4536C522.061 92.5522 525.869 95.6538 530.284 97.7585C534.699 99.9739 539.942 101.082 546.013 101.082C554.071 101.082 560.417 98.9216 565.053 94.6014C569.799 90.3921 572.172 84.6873 572.172 77.4871V57.8805L574.822 40.1015L572.172 22.4887V1.71894H587.073V77.4871C587.073 85.0197 585.307 91.6106 581.775 97.26C578.354 102.909 573.497 107.34 567.205 110.553C561.024 113.765 553.85 115.371 545.682 115.371ZM545.682 79.3149C538.507 79.3149 532.05 77.5979 526.311 74.164C520.681 70.73 516.211 66.0222 512.9 60.0405C509.588 53.9481 507.933 47.1356 507.933 39.6031C507.933 32.0705 509.588 25.3688 512.9 19.4979C516.211 13.5162 520.681 8.80837 526.311 5.37444C532.05 1.82973 538.507 0.057373 545.682 0.057373C551.863 0.057373 557.327 1.27585 562.073 3.71284C566.819 6.14983 570.572 9.58378 573.331 14.0147C576.201 18.3348 577.747 23.4303 577.967 29.3012V50.2372C577.636 55.9973 576.036 61.0929 573.166 65.5237C570.406 69.8439 566.654 73.2224 561.907 75.6594C557.161 78.0964 551.753 79.3149 545.682 79.3149ZM548.662 65.1914C553.519 65.1914 557.768 64.1391 561.411 62.0344C565.164 59.9298 568.033 56.9943 570.02 53.228C572.007 49.351 573 44.8647 573 39.7692C573 34.6737 571.952 30.2428 569.855 26.4765C567.868 22.5995 565.053 19.6087 561.411 17.504C557.768 15.2885 553.463 14.1808 548.496 14.1808C543.529 14.1808 539.17 15.2885 535.417 17.504C531.664 19.6087 528.684 22.5995 526.476 26.4765C524.379 30.2428 523.33 34.6183 523.33 39.6031C523.33 44.5878 524.379 49.0187 526.476 52.8957C528.684 56.7727 531.664 59.819 535.417 62.0344C539.28 64.1391 543.695 65.1914 548.662 65.1914Z" fill="#1E1E1E"/>
<path d="M204.831 20.9857C201.293 15.527 196.517 10.9383 190.874 7.57658C185.232 4.21483 178.874 2.17054 172.297 1.6027C165.719 1.03487 159.099 1.95877 152.95 4.30256C146.802 6.64635 141.29 10.3468 136.845 15.1163C132.4 19.8858 129.141 25.5958 127.321 31.8023C125.501 38.0087 125.169 44.5444 126.351 50.9011C127.534 57.2579 130.198 63.2643 134.138 68.4535C138.078 73.6426 143.186 77.8746 149.066 80.8204C151.934 82.2673 154.725 82.8295 158.074 84.1372L196.833 98.328C197.958 98.7354 199.164 98.8832 200.357 98.76C201.549 98.6368 202.696 98.2458 203.708 97.6176C204.72 96.9895 205.57 96.141 206.191 95.1383C206.812 94.1356 207.188 93.0057 207.29 91.8368L210.502 52.1529C210.966 48.8076 211.24 45.4395 211.323 42.064C211.114 34.6007 208.873 27.3242 204.831 20.9857ZM178.664 58.8995C175.519 60.8595 171.849 61.8622 168.118 61.7806C164.387 61.6991 160.763 60.5369 157.704 58.4413C154.645 56.3457 152.289 53.4107 150.933 50.0073C149.577 46.6039 149.283 42.8851 150.087 39.3211C150.891 35.7571 152.757 32.508 155.45 29.9846C158.143 27.4613 161.542 25.7768 165.216 25.1446C168.89 24.5123 172.675 24.9606 176.093 26.4326C179.51 27.9045 182.405 30.3343 184.414 33.4144C185.747 35.4596 186.656 37.7412 187.089 40.1288C187.522 42.5164 187.47 44.9633 186.936 47.3299C186.402 49.6964 185.397 51.9362 183.977 53.9213C182.558 55.9065 180.753 57.5981 178.664 58.8995Z" fill="#DD6224"/>
</svg>
