<svg width="896" height="372" viewBox="0 0 896 372" fill="none" xmlns="http://www.w3.org/2000/svg">
<path d="M663.363 340.242C663.018 335.718 666.993 331.698 671.373 329.756C675.753 327.815 680.68 327.155 685.182 325.407C686.967 324.689 688.954 323.465 689.015 321.64C689.015 318.921 685.061 317.756 684.026 315.29C682.931 312.436 686.054 309.795 687.311 306.999C690.11 300.65 683.134 294.242 676.361 291.64C669.588 289.038 661.517 287.174 658.374 280.96C657.224 277.971 656.487 274.851 656.184 271.679C654.603 263.911 648.519 256.261 640.185 254.96C631.85 253.659 622.462 260.785 623.82 268.552C624.652 272.902 628.058 276.319 629.904 280.203C631.749 284.086 631.283 290.183 626.903 291.484C620.23 293.416 613.785 282.797 608.072 284.723C607.253 284.999 606.96 285.946 607.215 286.772C609.37 293.746 611.469 300.709 613.607 307.727C613.894 308.671 613.453 309.702 612.516 310.01C603.442 312.991 593.158 305.159 589.347 296.339C585.312 286.999 585.17 276.455 580.384 267.504C575.745 258.825 563.443 252.246 555.213 257.638C554.715 257.964 554.426 258.53 554.452 259.124C554.925 269.978 570.32 274.636 577.241 283.717C582.372 290.455 581.621 301.407 574.017 305.679C566.413 309.951 554.53 302.514 557.389 294.669C558.423 291.95 560.816 289.679 561.079 286.747C561.363 283.135 558.139 280.203 555.199 277.873C550.616 274.183 546.033 270.552 541.45 266.921C538.635 264.369 535.31 262.388 531.676 261.096C522.226 258.494 512.797 265.756 507.788 273.737C502.78 281.717 500.001 291.213 493.087 297.834C483.17 307.543 464.352 308.145 455.045 297.97C445.737 287.795 450.462 268.844 464.21 265.057C469.422 263.698 475.972 263.814 478.729 259.465C483.515 251.698 469.827 241.989 474.552 234.222C478.162 228.261 487.753 230.979 494.729 228.96C501.705 226.94 505.537 220.338 509.634 214.649C513.178 209.726 518.378 204.831 524.327 204.559C525.71 204.496 526.938 203.342 526.797 201.965C526.481 198.892 526.496 195.725 527.904 192.999C529.452 190.001 533.369 187.838 536.602 188.594C537.654 188.84 537.875 190.088 537.529 191.111C535.76 196.33 539.683 202.676 545.141 205.115C551.224 207.834 558.342 207.193 565.054 206.474C571.766 205.756 580.182 203.368 580.729 197.018C580.932 194.94 580.1 192.746 580.932 190.804C583.872 183.212 598.655 193.639 604.333 187.562C607.618 184.377 603.988 178.746 599.405 177.697C594.822 176.649 590.158 178.222 585.515 178.358C580.871 178.494 575.173 176.222 574.97 171.814C574.767 167.406 579.898 164.358 580.445 160.163C581.337 152.901 568.278 151.018 563.756 156.921C559.234 162.824 560.816 170.921 562.174 178.105C563.519 185.216 564.288 193.619 558.858 198.686C558.746 198.791 558.643 198.909 558.548 199.031C556.062 202.212 550.03 200.407 548.02 196.901C545.972 193.329 546.378 188.863 545.992 184.785C545.607 180.707 543.741 175.969 539.503 174.863C536.563 174.086 533.42 175.445 530.398 175.833C518.495 177.193 510.222 162.61 513.973 151.853C517.725 141.095 528.472 134.105 538.956 128.552C546.621 124.532 556.132 120.785 563.716 124.862C567.264 126.804 569.799 129.969 573.226 131.93C579.31 135.289 586.711 134.066 593.606 134.183C604.534 134.469 615.031 138.327 623.354 145.115C626.436 147.775 629.295 152.183 626.903 155.367C624.729 158.26 618.223 159.262 618.02 162.389C617.978 163.035 618.528 163.531 619.16 163.673C626.114 165.238 633.831 160.95 636.138 154.673C636.6 153.416 638.006 152.598 639.096 153.376C640.092 154.088 640.973 154.944 641.704 155.919C642.126 156.481 642.492 157.076 642.801 157.695C643.547 159.19 645.781 160.004 647.214 159.145C656.333 153.681 670.133 155.621 676.381 164.183C678.288 166.707 679.667 169.756 682.465 171.503C685.263 173.251 689.988 172.338 690.333 169.29C690.394 168.31 690.206 167.33 689.785 166.435C688.353 162.593 686.875 158.809 685.432 155.02C685.069 154.069 685.48 152.971 686.459 152.69C692.416 150.98 699.044 155.641 703.047 160.61C719.047 180.901 730.484 168.707 753.053 172.008C768.323 174.222 775.015 183.484 783.633 194.688C809.995 229.173 844.934 257.426 868.943 293.465C871.478 297.213 873.81 301.038 876 304.921C875.595 303.95 875.25 302.98 874.824 302.009C865.437 278.604 853.759 256.103 839.946 234.805C837.005 230.28 833.984 225.795 830.922 221.387C828.995 218.669 827.008 215.892 825.021 213.232C822.506 209.736 819.83 206.358 817.153 202.999C815.125 200.261 812.915 197.62 810.725 195.018C809.224 193.212 807.642 191.387 806.081 189.581C804.52 187.775 802.654 185.503 800.748 183.484L794.989 177.193C794.441 176.552 793.833 175.911 793.143 175.251C791.178 173.125 789.213 171.053 787.119 168.983C786.986 168.851 786.877 168.698 786.762 168.55C786.68 168.443 786.586 168.345 786.483 168.257C786.373 168.163 786.26 168.071 786.159 167.966C785.652 167.436 785.097 166.907 784.525 166.377C782.822 164.571 780.977 162.804 779.192 161.057C776.252 158.222 773.23 155.367 770.168 152.649C767.633 150.241 765.038 147.969 762.361 145.697C760.029 143.756 757.717 141.697 755.325 139.736C752.932 137.775 750.661 135.853 748.268 134.047C745.388 131.717 742.448 129.445 739.447 127.173C731.173 120.882 722.65 114.94 713.876 109.348C711.686 107.93 709.557 106.571 707.367 105.212C705.176 103.852 702.926 102.474 700.736 101.192C698.546 99.9107 696.295 98.5321 694.023 97.3088C691.752 96.0854 689.522 94.7262 687.251 93.4252C685.405 92.3767 683.641 91.4835 681.775 90.4932C680.873 89.9495 679.939 89.4567 678.977 89.0174C675.084 86.9397 671.109 84.9204 667.135 83.0563C665.107 82.0854 663.18 81.1145 661.051 80.2019C658.537 78.9592 655.921 77.7941 653.325 76.7067C652.958 76.4973 652.571 76.3218 652.169 76.1824C649.837 75.1339 647.526 74.1047 645.112 73.1339C641.767 71.7746 638.421 70.4154 634.973 69.1144C631.141 67.6193 627.308 66.1435 623.394 64.7649C619.095 63.2115 614.776 61.7357 610.396 60.3765C606.016 59.0173 601.575 57.5804 597.134 56.2794C592.693 54.9784 588.232 53.8134 583.71 52.6483C574.828 50.3959 565.804 48.3765 556.699 46.6289C556.582 46.6031 556.466 46.5728 556.352 46.5379C556.259 46.5095 556.164 46.4841 556.069 46.4665C552.676 45.8432 549.283 45.2215 545.89 44.7084C545.796 44.6942 545.704 44.6725 545.611 44.6487C545.431 44.6021 545.246 44.5695 545.06 44.5512C543.559 44.2988 541.998 44.0464 540.416 43.8522C533.907 42.8036 527.357 41.9104 520.705 41.2502C519.913 41.1236 519.115 41.0393 518.313 40.9978C516.406 40.726 514.48 40.6094 512.493 40.4152C508.133 40.0269 503.753 39.6968 499.292 39.4444C494.83 39.1919 490.065 38.9201 485.401 38.7842C480.737 38.6483 475.688 38.5317 470.841 38.5317C457.985 38.5317 445.257 39.069 432.657 40.1434C429.656 40.3376 426.716 40.6094 423.776 40.9201C420.835 41.2308 417.692 41.5803 414.529 41.9687C411.365 42.357 408.445 42.7454 405.363 43.192C402.281 43.6386 399.279 44.1046 396.197 44.6289C393.602 45.0172 390.925 45.4638 388.329 45.9881C381.901 47.1531 375.534 48.4347 369.247 49.8716C366.307 50.5124 363.367 51.2308 360.426 52.0075C357.486 52.7842 354.525 53.5027 351.666 54.2794C346.799 55.5804 342.075 56.9979 337.37 58.4154C333.576 59.6457 329.722 60.857 326.005 62.087C325.93 62.1117 325.851 62.1237 325.776 62.1482C325.655 62.1881 325.546 62.2614 325.425 62.302C321.597 63.5843 317.883 64.9234 314.111 66.3377L313.503 66.5319C310.015 67.8135 306.527 69.1727 303.1 70.5513C298.781 72.2213 294.542 74.0465 290.365 75.8523C286.816 77.4057 283.329 78.9591 279.902 80.5902C276.475 82.2213 272.52 84.0854 268.89 85.8912L268.485 86.1048C264.997 87.8524 261.509 89.6582 258.082 91.5417C254.655 93.4252 251.046 95.4253 247.558 97.367C244.273 99.3088 241.069 101.115 237.844 103.056C236.608 103.775 235.452 104.552 234.215 105.328C230.808 107.406 227.523 109.542 224.076 111.736C220.02 114.396 215.964 117.192 212.051 119.969C208.542 122.435 205.136 124.959 201.77 127.484C182.438 142.111 164.453 158.3 148.012 175.872C142.192 181.95 136.717 188.183 131.384 194.532C127.566 199.123 123.849 203.768 120.27 208.54C119.52 209.54 120.341 210.93 121.589 210.863C127.673 210.416 134.263 210.61 139.84 208.067C144.97 205.678 148.6 201.329 153.244 198.222C165.147 190.183 184.655 188.688 187.859 175.212C188.954 170.688 187.656 165.756 189.44 161.406C192.786 153.309 204.223 152.144 213.389 152.28C217.282 152.28 221.865 152.804 223.65 156.027C224.948 158.299 224.197 161.154 223.224 163.561C217.465 178.839 206.377 191.747 191.833 200.105C180.121 206.869 164.894 212.11 161.279 224.503C161.164 224.898 161.177 225.329 161.38 225.687C163.507 229.445 171.14 229.344 171.778 233.678C172.265 237.29 167.337 239.173 165.553 242.416C162.957 247.154 168.919 252.921 174.597 252.649C180.275 252.377 184.999 248.513 189.156 244.882C201.607 233.931 214.687 222.125 219.189 206.591C221.216 200.164 221.804 192.649 227.3 188.377C233.125 183.842 243.059 186.18 246.609 192.246C247.254 193.35 248.649 193.964 249.826 193.466C255.074 191.247 261.753 190.237 264.186 194.863C265.159 196.804 264.875 198.94 265.362 200.94C267.126 209.232 279.111 212.999 280.348 221.348C281.767 231.057 268.708 236.008 258.508 237.504C249.281 238.863 240.035 240.222 230.808 241.64C226.741 241.917 222.8 243.115 219.31 245.135C216.073 247.431 214.037 251.745 215.803 255.159C215.855 255.26 215.919 255.354 215.99 255.442C217.361 257.131 218.939 258.658 220.689 259.989C228.354 267.232 222.048 282.203 211.239 282.533C207.549 282.669 203.919 281.368 200.228 281.232C189.278 280.785 180.599 289.912 175.388 299.057C170.176 308.203 166.283 318.63 157.543 324.844C143.348 334.883 119.156 332.611 112.322 347.99C109.585 354.203 111.004 361.194 112.099 367.873C112.184 368.36 112.26 368.856 112.331 369.356C112.473 370.351 113.317 371.096 114.321 371.096H412.923C413.167 371.096 413.408 371.052 413.636 370.966C419.806 368.643 426.449 366.872 431.704 363.135C444.033 354.397 445.676 337.737 453.443 325.155C460.162 314.269 479.22 308.833 486.602 316.781C487.865 318.141 490.755 318.345 491.747 316.776C518.536 274.383 572.755 346.555 605.428 340.922C615.243 339.232 624.814 334.766 634.689 336.087C651.233 338.277 660.184 354.733 666.129 369.762C666.432 370.531 667.172 371.038 667.998 371.038H678.133C679.473 371.038 680.445 369.742 680.158 368.433C679.14 363.787 678.756 358.971 675.976 355.116C672.022 349.834 663.91 346.747 663.363 340.242ZM434.016 108.882C431.36 114.707 432.556 122.047 428.48 127.134C425.236 131.154 419.618 132.59 414.427 133.756L381.739 141.115C376.839 141.973 372.102 143.53 367.686 145.736C359.129 150.591 354.566 159.756 347.955 166.824C341.345 173.892 329.502 178.96 321.695 173.076C319.924 171.545 318.493 169.688 317.486 167.617C316.479 165.545 315.918 163.301 315.835 161.018C315.244 154.448 316.879 147.87 320.499 142.26C324.209 136.435 329.908 131.989 333.051 125.95C336.194 119.911 335.565 111.037 328.995 108.202C325.507 106.668 321.107 107.27 318.004 105.115C312.428 101.231 316.423 92.0272 322.891 89.697C329.36 87.3669 336.559 89.1922 343.474 89.6C368.517 91.1146 386.95 75.5805 405.789 62.6678C420.45 52.6289 451.658 40.7648 468.651 51.0173C475.404 55.1144 478.06 65.6387 471.693 70.26C468.834 72.3183 464.9 72.7843 462.243 75.0756C459.06 77.8329 458.614 82.3378 456.788 86.0465C452.104 95.6388 438.416 99.134 434.016 108.882Z" fill="#285F98" fill-opacity="0.5"/>
<g opacity="0.3">
<path d="M428.48 127.134C432.536 122.047 431.36 114.765 434.016 108.881C438.416 99.1727 452.104 95.6387 456.849 86.0464C458.674 82.3376 459.12 77.8328 462.304 75.0755C464.961 72.7842 468.895 72.3181 471.754 70.2599C478.121 65.6385 475.465 55.1142 468.712 51.0171C451.759 40.7646 420.551 52.6288 405.85 62.6677C387.011 75.5803 368.578 91.1144 343.535 89.5998C336.62 89.1921 329.441 87.3862 322.952 89.6969C316.463 92.0076 312.489 101.212 318.065 105.114C321.168 107.27 325.568 106.668 329.056 108.202C335.525 111.037 336.174 119.852 333.112 125.95C330.05 132.047 324.27 136.513 320.559 142.26C316.94 147.87 315.304 154.448 315.895 161.018C315.979 163.301 316.54 165.545 317.547 167.617C318.554 169.688 319.985 171.545 321.756 173.076C329.563 178.901 341.426 173.911 348.016 166.823C354.607 159.736 359.189 150.59 367.747 145.736C372.163 143.53 376.9 141.972 381.8 141.115L414.488 133.755C419.618 132.59 425.236 131.212 428.48 127.134Z" fill="#FFFEFE"/>
<path d="M634.689 336.106C624.814 334.786 615.243 339.252 605.428 340.941C572.76 346.574 518.554 274.354 491.76 316.768C490.767 318.34 487.856 318.135 486.581 316.781C479.197 308.94 460.15 314.405 453.443 325.271C445.676 337.854 444.034 354.514 431.704 363.252C429.211 365.06 426.401 366.393 423.48 367.542C421.414 368.355 421.902 371.213 424.121 371.213H663.72C665.122 371.213 666.089 369.808 665.566 368.507C659.625 353.744 650.757 338.228 634.689 336.106Z" fill="#FFFEFE"/>
<path d="M280.327 221.387C279.09 213.037 267.106 209.27 265.342 200.979C264.855 199.037 265.139 196.765 264.166 194.901C261.731 190.272 255.043 191.288 249.794 193.51C248.62 194.007 247.231 193.399 246.588 192.299C243.01 186.179 233.06 183.873 227.28 188.416C221.825 192.688 221.196 200.202 219.168 206.629C214.666 222.164 201.587 233.969 189.136 244.921C185.081 248.552 180.254 252.436 174.576 252.688C168.899 252.94 162.937 247.193 165.532 242.455C167.317 239.212 172.244 237.329 171.758 233.717C171.119 229.382 163.487 229.483 161.36 225.726C161.157 225.368 161.144 224.937 161.259 224.542C164.874 212.148 180.101 206.908 191.813 200.144C206.357 191.785 217.444 178.878 223.204 163.6C224.177 161.192 224.927 158.338 223.629 156.066C221.845 152.843 217.262 152.319 213.369 152.319C204.203 152.183 192.766 153.348 189.42 161.445C187.636 165.794 188.933 170.726 187.838 175.251C184.634 188.726 165.127 190.222 153.223 198.261C148.58 201.367 144.95 205.717 139.82 208.105C134.284 210.649 127.774 210.455 121.569 210.901C120.767 210.901 119.941 211.01 119.119 211.121C118.585 211.193 118.1 211.473 117.775 211.902C114.224 216.597 110.777 221.415 107.435 226.358C103.934 231.536 100.554 236.746 97.2961 241.989C81.8531 267.016 69.2883 293.573 59.8219 321.193C56.4693 330.889 53.5087 340.734 50.9401 350.727C49.3133 357.055 47.8539 363.446 46.5617 369.9C46.4337 370.54 46.9234 371.135 47.5754 371.135C48.032 371.135 48.4352 370.836 48.5638 370.398C49.8133 366.14 50.7635 361.911 51.5687 358.203C51.7918 357.213 51.9946 356.261 52.1973 355.349C54.4685 345.64 57.8144 335.329 65.8243 328.766C73.8342 322.203 87.8667 321.504 94.0922 329.62C98.5331 335.446 97.5192 343.426 96.3633 350.553C95.338 356.874 94.3447 362.737 93.3266 368.805C93.122 370.024 94.0622 371.135 95.2985 371.135H110.267C111.475 371.135 112.416 370.072 112.235 368.878C112.186 368.553 112.134 368.231 112.079 367.912C110.984 361.232 109.564 354.32 112.302 348.028C119.136 332.494 143.429 334.921 157.522 324.882C166.262 318.669 170.176 308.222 175.367 299.096C180.559 289.97 189.258 280.824 200.208 281.271C203.899 281.407 207.529 282.708 211.219 282.572C222.027 282.242 228.334 267.271 220.669 260.028C218.919 258.696 217.341 257.17 215.969 255.48C215.898 255.393 215.834 255.298 215.782 255.198C214.016 251.786 216.053 247.546 219.29 245.173C222.78 243.154 226.72 241.956 230.788 241.678C240.014 240.261 249.261 238.902 258.488 237.542C268.688 236.067 281.747 231.057 280.327 221.387Z" fill="#FFFEFE"/>
<path d="M886.971 336.552C885.349 331.213 883.645 325.912 881.82 320.649C879.995 315.387 878.069 310.183 876.021 304.999C873.83 301.115 871.498 297.232 868.964 293.542C844.954 257.503 810.157 229.251 783.653 194.765C775.035 183.561 768.343 174.299 753.074 172.085C730.504 168.785 719.067 180.979 703.068 160.687C699.119 155.717 692.492 151.054 686.487 152.769C685.505 153.05 685.09 154.15 685.454 155.104C686.897 158.891 688.374 162.672 689.806 166.513C690.226 167.408 690.414 168.387 690.353 169.367C690.008 172.416 685.223 173.251 682.485 171.581C679.748 169.911 678.43 166.785 676.402 164.26C670.106 155.672 656.321 153.754 647.244 159.204C645.808 160.066 643.562 159.253 642.813 157.756C642.506 157.142 642.142 156.554 641.725 155.997C640.993 155.022 640.112 154.165 639.116 153.453C638.026 152.675 636.62 153.493 636.157 154.75C633.844 161.029 626.097 165.317 619.171 163.749C618.544 163.607 617.997 163.118 618.035 162.477C618.215 159.43 624.513 158.492 626.923 155.445C629.579 152.085 626.456 147.852 623.374 145.192C615.049 138.393 604.544 134.528 593.606 134.241C586.711 134.124 579.249 135.347 573.226 131.988C569.738 130.046 567.264 126.804 563.716 124.92C556.132 120.843 546.621 124.59 538.956 128.61C528.472 134.124 517.664 141.056 513.973 151.911C510.282 162.765 518.495 177.154 530.398 175.891C533.4 175.503 536.482 174.144 539.503 174.921C543.742 176.027 545.587 180.746 545.992 184.843C546.398 188.94 545.85 193.328 548.02 196.959C550.148 200.521 556.061 202.326 558.545 199.096C558.642 198.97 558.748 198.847 558.864 198.738C564.289 193.67 563.599 185.233 562.174 178.163C560.735 171.018 559.234 162.862 563.756 156.979C568.278 151.095 581.337 152.959 580.445 160.221C579.898 164.493 574.767 167.6 574.97 171.872C575.173 176.144 580.851 178.61 585.515 178.416C590.179 178.221 594.883 176.668 599.405 177.755C603.927 178.843 607.618 184.435 604.333 187.62C598.655 193.697 583.872 183.27 580.932 190.862C580.1 192.804 580.932 194.998 580.729 197.076C580.182 203.426 571.766 205.756 565.054 206.532C558.342 207.309 551.244 207.892 545.141 205.173C539.665 202.734 535.756 196.388 537.528 191.169C537.875 190.146 537.654 188.898 536.603 188.648C533.37 187.88 529.452 190.01 527.904 193.057C526.487 195.846 526.481 198.933 526.803 202.037C526.945 203.41 525.72 204.556 524.341 204.618C518.374 204.889 513.129 209.813 509.634 214.707C505.598 220.358 501.644 227.018 494.729 229.018C487.814 231.018 478.162 228.319 474.552 234.28C469.827 242.047 483.515 251.892 478.73 259.523C475.972 263.872 469.422 263.756 464.21 265.115C450.462 268.804 445.676 287.853 455.045 298.028C464.413 308.203 483.17 307.62 493.087 297.892C500.001 291.212 502.8 281.834 507.788 273.795C512.777 265.756 522.226 258.552 531.676 261.154C535.31 262.446 538.635 264.427 541.45 266.979C546.033 270.61 550.616 274.241 555.199 277.931C558.139 280.261 561.282 283.193 561.079 286.805C560.816 289.737 558.423 292.008 557.389 294.727C554.53 302.494 566.494 310.009 574.017 305.737C581.54 301.465 582.372 290.513 577.241 283.775C570.32 274.694 554.925 270.036 554.452 259.182C554.426 258.588 554.716 258.022 555.213 257.696C563.443 252.3 575.745 258.827 580.384 267.562C585.17 276.571 585.312 287.135 589.347 296.397C593.158 305.143 603.442 313.041 612.515 310.068C613.453 309.76 613.894 308.729 613.607 307.785C611.469 300.77 609.371 293.809 607.217 286.837C606.961 286.008 607.258 285.057 608.081 284.781C613.835 282.852 620.229 293.474 626.903 291.542C631.283 290.241 631.83 284.28 629.904 280.261C627.977 276.241 624.652 272.882 623.82 268.61C622.462 260.707 631.769 253.639 640.185 255.018C648.6 256.397 654.603 263.911 656.184 271.736C656.487 274.909 657.224 278.029 658.374 281.018C661.517 287.232 669.669 289.115 676.361 291.698C683.053 294.28 690.11 300.708 687.311 307.057C686.014 309.853 682.931 312.494 684.026 315.348C685.061 317.873 689.015 318.979 689.015 321.698C689.015 323.523 686.987 324.746 685.182 325.465C680.68 327.213 675.753 327.795 671.373 329.814C666.993 331.834 663.018 335.776 663.363 340.3C663.91 346.785 672.062 349.892 675.895 355.271C678.91 359.451 679.107 364.761 680.349 369.759C680.562 370.615 681.346 371.193 682.229 371.193H727.528C729.03 371.193 729.996 369.599 729.302 368.267C728.266 366.28 727.231 364.296 726.185 362.307C725.738 361.458 725.947 360.385 726.803 359.95C730.826 357.904 736.328 359.252 740.055 362.145C742.825 364.574 745.277 367.313 747.36 370.303C747.743 370.855 748.367 371.193 749.039 371.193H893.073C894.333 371.193 895.28 370.041 895.027 368.806C892.794 357.886 890.109 347.135 886.971 336.552Z" fill="#FFFEFE"/>
</g>
<path d="M456.849 86.0464C458.674 82.3376 459.12 77.8328 462.304 75.0755C464.961 72.7842 468.895 72.3181 471.754 70.2599C478.121 65.6385 475.465 55.1142 468.712 51.0171C451.759 40.7646 420.551 52.6288 405.85 62.6677C387.011 75.5803 368.578 91.1144 343.535 89.5998C336.62 89.1921 329.441 87.3862 322.952 89.6969C316.463 92.0076 312.489 101.212 318.065 105.114C321.168 107.27 325.568 106.668 329.056 108.202C335.525 111.037 336.174 119.852 333.112 125.95C330.05 132.047 324.27 136.513 320.559 142.26C316.94 147.87 315.304 154.448 315.895 161.018C315.979 163.301 316.54 165.545 317.547 167.617C318.554 169.688 319.985 171.545 321.756 173.076C329.563 178.901 341.426 173.911 348.016 166.823C354.607 159.736 359.189 150.59 367.747 145.736C372.163 143.53 376.9 141.972 381.8 141.115L414.488 133.755C419.679 132.59 425.296 131.153 428.541 127.134C432.597 122.047 431.42 114.765 434.077 108.881C438.416 99.1338 452.104 95.6387 456.849 86.0464Z" fill="white"/>
<path d="M634.689 336.106C624.814 334.786 615.243 339.252 605.428 340.941C572.76 346.574 518.554 274.354 491.76 316.768C490.767 318.34 487.856 318.135 486.581 316.781C479.197 308.94 460.15 314.405 453.443 325.271C445.676 337.854 444.034 354.514 431.704 363.252C429.211 365.06 426.401 366.393 423.48 367.542C421.414 368.355 421.902 371.213 424.121 371.213H663.72C665.122 371.213 666.089 369.808 665.566 368.507C659.625 353.744 650.757 338.228 634.689 336.106Z" fill="white"/>
<path d="M881.8 320.649C879.975 315.387 878.048 310.183 876 304.999C873.81 301.115 871.478 297.232 868.943 293.542C844.934 257.503 810.137 229.251 783.633 194.765C775.015 183.561 768.323 174.299 753.053 172.085C730.484 168.785 719.047 180.979 703.047 160.687C699.098 155.717 692.471 151.054 686.467 152.769C685.485 153.05 685.07 154.15 685.434 155.104C686.877 158.891 688.354 162.672 689.785 166.513C690.206 167.408 690.394 168.387 690.333 169.367C689.988 172.416 685.202 173.251 682.465 171.581C679.727 169.911 678.409 166.785 676.381 164.26C670.086 155.672 656.301 153.754 647.223 159.204C645.788 160.066 643.542 159.253 642.793 157.756C642.486 157.142 642.122 156.554 641.704 155.997C640.973 155.022 640.092 154.165 639.096 153.453C638.006 152.675 636.6 153.493 636.137 154.75C633.823 161.029 626.077 165.317 619.15 163.749C618.524 163.607 617.977 163.118 618.015 162.477C618.195 159.43 624.493 158.492 626.903 155.445C629.559 152.085 626.436 147.852 623.354 145.192C615.029 138.393 604.523 134.528 593.585 134.241C586.691 134.124 579.228 135.347 573.206 131.988C569.718 130.046 567.244 126.804 563.695 124.92C556.111 120.843 546.601 124.59 538.936 128.61C528.452 134.124 517.643 141.056 513.953 151.911C510.262 162.765 518.475 177.154 530.378 175.891C533.379 175.503 536.462 174.144 539.483 174.921C543.721 176.027 545.567 180.746 545.972 184.843C546.378 188.94 545.83 193.328 548 196.959C550.128 200.521 556.041 202.326 558.525 199.096C558.622 198.97 558.728 198.847 558.844 198.738C564.269 193.67 563.579 185.233 562.154 178.163C560.714 171.018 559.214 162.862 563.736 156.979C568.258 151.095 581.317 152.959 580.425 160.221C579.877 164.493 574.747 167.6 574.95 171.872C575.153 176.144 580.83 178.61 585.494 178.416C590.158 178.221 594.863 176.668 599.385 177.755C603.907 178.843 607.598 184.435 604.313 187.62C598.635 193.697 583.852 183.27 580.912 190.862C580.08 192.804 580.912 194.998 580.709 197.076C580.161 203.426 571.746 205.756 565.034 206.532C558.322 207.309 551.224 207.892 545.12 205.173C539.645 202.734 535.735 196.388 537.508 191.169C537.855 190.146 537.634 188.898 536.583 188.648C533.35 187.88 529.432 190.01 527.884 193.057C526.466 195.846 526.461 198.933 526.783 202.037C526.925 203.41 525.7 204.556 524.321 204.618C518.354 204.889 513.109 209.813 509.613 214.707C505.578 220.358 501.624 227.018 494.709 229.018C487.794 231.018 478.141 228.319 474.532 234.28C469.807 242.047 483.495 251.892 478.709 259.523C475.951 263.872 469.402 263.756 464.19 265.115C450.441 268.804 445.656 287.853 455.024 298.028C464.393 308.203 483.15 307.62 493.066 297.892C499.981 291.212 502.78 281.834 507.768 273.795C512.756 265.756 522.206 258.552 531.656 261.154C535.29 262.446 538.615 264.427 541.43 266.979C546.013 270.61 550.596 274.241 555.178 277.931C558.119 280.261 561.262 283.193 561.059 286.805C560.796 289.737 558.403 292.008 557.368 294.727C554.509 302.494 566.473 310.009 573.997 305.737C581.52 301.465 582.351 290.513 577.221 283.775C570.3 274.694 554.904 270.036 554.432 259.182C554.406 258.588 554.695 258.022 555.193 257.696C563.423 252.3 575.724 258.827 580.364 267.562C585.15 276.571 585.292 287.135 589.327 296.397C593.138 305.143 603.421 313.041 612.495 310.068C613.433 309.76 613.874 308.729 613.586 307.785C611.449 300.77 609.351 293.809 607.197 286.837C606.941 286.008 607.237 285.057 608.061 284.781C613.815 282.852 620.208 293.474 626.882 291.542C631.262 290.241 631.81 284.28 629.883 280.261C627.957 276.241 624.631 272.882 623.8 268.61C622.441 260.707 631.749 253.639 640.165 255.018C648.58 256.397 654.582 263.911 656.164 271.736C656.467 274.909 657.203 278.029 658.354 281.018C661.497 287.232 669.649 289.115 676.341 291.698C683.033 294.28 690.089 300.708 687.291 307.057C685.993 309.853 682.911 312.494 684.006 315.348C685.04 317.873 688.994 318.979 688.994 321.698C688.994 323.523 686.967 324.746 685.162 325.465C680.66 327.213 675.733 327.795 671.352 329.814C666.972 331.834 662.998 335.776 663.342 340.3C663.89 346.785 672.042 349.892 675.874 355.271C678.889 359.451 679.087 364.761 680.329 369.759C680.542 370.615 681.325 371.193 682.208 371.193H727.528C729.03 371.193 729.996 369.599 729.302 368.267C728.266 366.28 727.231 364.296 726.185 362.307C725.738 361.458 725.947 360.385 726.803 359.95C730.826 357.904 736.328 359.252 740.055 362.145C742.825 364.574 745.277 367.313 747.36 370.303C747.743 370.855 748.367 371.193 749.039 371.193H893.069C894.331 371.193 895.278 370.039 895.023 368.803C892.79 357.966 890.099 347.235 886.95 336.611C885.328 331.213 883.625 325.912 881.8 320.649Z" fill="white"/>
<path d="M740.055 362.087C736.329 359.246 730.811 357.858 726.799 359.893C725.944 360.326 725.737 361.398 726.183 362.246C727.554 364.853 728.907 367.453 730.268 370.061C730.612 370.721 731.295 371.135 732.04 371.135H744.244C745.838 371.135 746.772 369.373 745.785 368.122C744.073 365.949 742.155 363.929 740.055 362.087Z" fill="#285F98" fill-opacity="0.5"/>
<path d="M112.343 348.028C119.176 332.494 143.47 334.921 157.563 324.882C166.303 318.669 170.217 308.222 175.408 299.096C180.599 289.97 189.298 280.824 200.249 281.271C203.939 281.407 207.569 282.708 211.26 282.572C222.068 282.242 228.375 267.271 220.709 260.028C218.959 258.696 217.382 257.17 216.01 255.48C215.939 255.393 215.875 255.298 215.823 255.198C214.057 251.786 216.093 247.546 219.33 245.173C222.82 243.154 226.761 241.956 230.828 241.678C240.055 240.261 249.302 238.902 258.528 237.542C268.667 236.047 281.787 231.057 280.368 221.387C279.131 213.037 267.147 209.27 265.382 200.979C264.896 199.037 265.18 196.765 264.206 194.901C261.771 190.272 255.084 191.288 249.834 193.51C248.661 194.007 247.272 193.399 246.629 192.299C243.051 186.179 233.1 183.873 227.32 188.416C221.865 192.688 221.237 200.202 219.209 206.629C214.707 222.164 201.628 233.969 189.177 244.921C185.121 248.552 180.295 252.436 174.617 252.688C168.939 252.94 162.977 247.193 165.573 242.455C167.357 239.212 172.285 237.329 171.798 233.717C171.16 229.382 163.527 229.483 161.4 225.726C161.198 225.368 161.184 224.937 161.299 224.542C164.914 212.148 180.141 206.908 191.853 200.144C206.398 191.785 217.485 178.878 223.244 163.6C224.218 161.192 224.968 158.338 223.67 156.066C221.885 152.843 217.303 152.319 213.409 152.319C204.243 152.183 192.807 153.348 189.461 161.445C187.676 165.794 188.974 170.726 187.879 175.251C184.675 188.726 165.167 190.222 153.264 198.261C148.62 201.367 144.99 205.717 139.86 208.105C134.324 210.649 127.815 210.455 121.61 210.901C120.806 210.901 119.979 211.01 119.155 211.122C118.624 211.194 118.141 211.471 117.816 211.897C114.239 216.594 110.778 221.414 107.435 226.358C103.934 231.536 100.554 236.746 97.2961 241.989C81.8531 267.016 69.2883 293.573 59.8219 321.193C56.4693 330.889 53.5087 340.734 50.9401 350.727C49.3133 357.055 47.8539 363.446 46.5617 369.9C46.4337 370.54 46.9234 371.135 47.5754 371.135C48.032 371.135 48.4352 370.836 48.5638 370.398C49.8133 366.14 50.7635 361.911 51.5687 358.203C51.7918 357.213 51.9946 356.261 52.1973 355.349C54.4685 345.64 57.8144 335.329 65.8243 328.766C73.8342 322.203 87.8667 321.504 94.0922 329.62C98.5331 335.446 97.5192 343.426 96.3633 350.553C95.338 356.874 94.3447 362.737 93.3266 368.805C93.122 370.024 94.0622 371.135 95.2985 371.135H110.267C111.475 371.135 112.416 370.072 112.235 368.878C112.186 368.553 112.134 368.231 112.079 367.912C110.984 361.232 109.564 354.242 112.343 348.028Z" fill="white"/>
<path d="M94.0921 329.62C87.8667 321.446 73.8139 322.222 65.8446 328.766C57.8752 335.31 54.4888 345.562 52.2176 355.349C52.0148 356.242 51.812 357.291 51.589 358.203C50.9004 361.343 50.1058 364.914 49.1086 368.548C48.7538 369.841 49.716 371.135 51.0569 371.135H91.2801C92.2589 371.135 93.0938 370.427 93.2536 369.461C94.298 363.147 95.3481 356.845 96.4039 350.553C97.5192 343.426 98.5331 335.446 94.0921 329.62Z" fill="#285F98" fill-opacity="0.5"/>
<path d="M368.609 299.831C369.595 299.822 370.462 299.084 370.335 298.106C369.587 292.359 361.002 287.862 354.404 287.349C350.956 287.077 347.387 287.582 344.123 286.494C337.046 284.125 334.207 275.387 327.312 272.591C322.141 270.514 316.2 272.358 311.191 274.766C306.182 277.174 301.234 280.222 295.658 280.591C290.791 280.883 285.519 279.154 281.24 281.426C278.076 283.116 276.414 286.63 273.494 288.688C270.449 290.484 266.929 291.401 263.354 291.329C259.797 291.238 256.254 291.791 252.911 292.96C250.205 294.143 247.893 296.609 247.59 299.333C247.483 300.287 248.354 300.973 249.314 300.964L368.609 299.831Z" fill="#FAFAFA"/>
<path d="M400.153 253.248C401.143 253.239 402.023 252.481 401.771 251.524C400.806 247.861 395.266 245.045 390.965 244.707C388.597 244.788 386.227 244.592 383.909 244.125C379.062 242.494 377.136 236.513 372.411 234.591C368.862 233.173 364.806 234.435 361.379 236.086C357.952 237.736 354.546 239.814 350.733 240.067C347.387 240.261 343.778 239.076 340.858 240.63C338.688 241.795 337.553 244.202 335.545 245.601C333.47 246.845 331.057 247.474 328.61 247.406C326.172 247.355 323.744 247.737 321.452 248.533C320.317 248.958 319.355 249.722 318.708 250.712C318.408 251.172 318.183 251.67 318.038 252.188C317.756 253.197 318.673 254.02 319.72 254.01L400.153 253.248Z" fill="#FAFAFA"/>
<path d="M238.437 43.5142C238.538 43.4717 238.588 43.5635 238.493 43.6191L236.912 44.5511L230.828 48.0657L226.387 50.5706L221.176 53.6968C217.465 55.988 213.064 58.4541 208.603 61.4638L201.404 66.1629C198.91 67.8134 196.416 69.658 193.76 71.4833C188.447 75.1143 183.032 79.2503 177.253 83.6775C165.918 92.5902 153.832 102.862 141.868 114.357C130.692 125.281 120.1 136.739 110.132 148.688C105.651 154.26 101.311 159.484 97.58 164.629C95.6941 167.173 93.8082 169.6 92.1049 172.008L87.2786 178.96C84.1152 183.328 81.5805 187.484 79.1674 191.076L75.9431 196.086L73.3678 200.377L69.7785 206.299C69.3932 206.94 69.0688 207.445 68.8255 207.833C68.5821 208.222 68.4807 208.358 68.4605 208.338C68.4426 208.321 68.4562 208.184 68.6393 207.913C68.6936 207.833 68.7474 207.752 68.7939 207.667L69.596 206.202L73.0028 200.183C73.7733 198.863 74.6048 197.426 75.497 195.833C76.3892 194.241 77.5248 192.591 78.6604 190.765C80.9518 187.154 83.4461 182.998 86.5689 178.552L91.3546 171.561C93.0377 169.134 94.9235 166.707 96.7891 164.144C100.5 158.979 104.9 153.717 109.281 148.105C129.04 124.058 151.585 102.236 176.483 83.0562C182.282 78.7261 187.737 74.5318 193.09 70.9396C195.747 69.1143 198.261 67.2697 200.776 65.6386L208.035 60.9978C212.618 57.9492 216.958 55.522 220.709 53.2308C222.595 52.124 224.319 51.0754 225.961 50.1434L230.463 47.7162L236.729 44.3763L238.372 43.5414L238.437 43.5142Z" fill="white"/>
<path d="M287.688 2.6871C287.939 2.62439 288.002 2.82878 287.749 2.88129L284.241 3.92986C282.72 4.35704 280.855 4.88127 278.705 5.5803C276.556 6.27933 274.082 6.95895 271.405 7.891C266.031 9.658 259.704 11.9881 252.769 14.7843C245.834 17.5804 238.372 20.9785 230.686 24.862C223.001 28.7455 215.944 32.8814 209.617 36.7649C203.29 40.6484 197.775 44.532 193.232 47.7359C190.941 49.3475 188.933 50.9009 187.149 52.2407C185.364 53.5805 183.864 54.7262 182.627 55.7165L179.768 57.9107C179.57 58.0933 179.436 57.9236 179.646 57.7554L182.363 55.4058C183.56 54.3961 185.02 53.1534 186.784 51.7942C188.548 50.4349 190.515 48.8233 192.867 47.1728C197.349 43.7941 202.885 39.9882 209.09 35.9882C215.295 31.9882 222.514 27.9105 230.2 23.9687C237.885 20.027 245.428 16.726 252.384 13.9105C259.339 11.0949 265.747 8.90072 271.182 7.23081C273.879 6.31818 276.353 5.65797 278.523 5.03661C280.692 4.41525 282.578 3.91041 284.119 3.54148L287.688 2.6871Z" fill="white"/>
<path d="M39.5843 210.979C35.863 209.183 31.7592 208.233 27.5921 208.203C23.4249 208.173 19.3067 209.065 15.5578 210.807C11.8089 212.55 8.53043 215.097 5.97732 218.251C3.42421 221.405 1.66532 225.08 0.837483 228.991C0.00964203 232.902 0.135163 236.943 1.20428 240.8C2.27339 244.657 4.25728 248.225 7.00163 251.228C9.74597 254.231 13.1768 256.588 17.0272 258.114C20.8776 259.64 25.0439 260.295 29.2018 260.028C31.2296 259.892 32.933 259.329 35.1636 258.98L60.8561 254.494C61.6204 254.378 62.3448 254.089 62.9698 253.652C63.5948 253.215 64.1024 252.642 64.4508 251.98C64.7993 251.318 64.9787 250.587 64.9742 249.846C64.9697 249.105 64.7815 248.375 64.4251 247.718L53.0693 225.679C52.2158 223.76 51.2546 221.886 50.1898 220.067C47.5757 216.177 43.911 213.037 39.5843 210.979ZM37.962 239.232C36.9035 241.251 35.2436 242.923 33.1922 244.038C31.1407 245.153 28.79 245.661 26.4374 245.496C24.0847 245.332 21.836 244.502 19.9756 243.114C18.1151 241.725 16.7267 239.839 15.9858 237.695C15.245 235.55 15.1851 233.244 15.8137 231.066C16.4423 228.889 17.7311 226.94 19.5171 225.464C21.3031 223.989 23.5061 223.054 25.8473 222.777C28.1884 222.501 30.5626 222.896 32.6694 223.912C35.4876 225.276 37.6266 227.655 38.6185 230.526C39.6104 233.397 39.3743 236.527 37.962 239.232Z" fill="#DD6224"/>
<path d="M699.377 38.8426C701.448 35.3824 702.658 31.5114 702.913 27.5306C703.169 23.5497 702.462 19.5661 700.848 15.8894C699.234 12.2126 696.756 8.94174 693.607 6.33088C690.459 3.72002 686.724 1.83954 682.693 0.835497C678.662 -0.168544 674.443 -0.2691 670.365 0.541697C666.287 1.35249 662.459 3.05281 659.179 5.51046C655.898 7.96811 653.254 11.1169 651.451 14.7122C649.648 18.3076 648.735 22.2526 648.783 26.2406V26.3571C648.783 28.2989 649.31 29.9688 649.553 32.1824L652.859 56.9786C652.954 57.697 653.223 58.3843 653.643 58.9864C654.063 59.5885 654.624 60.089 655.28 60.4485C655.937 60.808 656.672 61.0167 657.427 61.0582C658.182 61.0996 658.936 60.9727 659.632 60.6874L683.235 50.9786C685.31 50.2661 687.341 49.4429 689.319 48.5126C693.509 46.2014 696.98 42.8638 699.377 38.8426ZM669.994 35.7747C667.941 34.6581 666.28 32.983 665.222 30.9616C664.164 28.9403 663.757 26.6637 664.052 24.4204C664.347 22.1772 665.33 20.0683 666.878 18.361C668.427 16.6538 670.469 15.4251 672.747 14.8306C675.025 14.2362 677.436 14.3028 679.675 15.022C681.913 15.7412 683.879 17.0807 685.321 18.8705C686.764 20.6604 687.619 22.8201 687.778 25.0759C687.938 27.3317 687.394 29.5821 686.216 31.5417C684.649 34.1602 682.06 36.0765 679.019 36.8701C675.978 37.6636 672.732 37.2697 669.994 35.7747Z" fill="#DD6224"/>
<path d="M295.475 26.1438C294.051 24.146 292.165 22.4897 289.963 21.3037C287.762 20.1176 285.304 19.4338 282.781 19.3054C280.259 19.177 277.739 19.6074 275.419 20.5632C273.098 21.519 271.039 22.9744 269.402 24.8163C267.765 26.6582 266.593 28.8369 265.978 31.183C265.363 33.5291 265.322 35.9794 265.857 38.3434C266.392 40.7074 267.489 42.9213 269.064 44.8131C270.638 46.7048 272.646 48.2234 274.933 49.2507C276.049 49.7555 277.123 49.9303 278.421 50.3769L293.427 55.1925C293.863 55.3305 294.326 55.3704 294.78 55.3091C295.234 55.2477 295.668 55.0867 296.047 54.8387C296.425 54.5906 296.739 54.2622 296.964 53.879C297.188 53.4958 297.317 53.0681 297.341 52.6293L298.051 37.736C298.184 36.4781 298.245 35.214 298.233 33.9496C298.056 31.159 297.104 28.4644 295.475 26.1438ZM285.965 40.6681C284.788 41.4419 283.397 41.864 281.97 41.8812C280.542 41.8984 279.141 41.5098 277.944 40.7646C276.747 40.0194 275.808 38.951 275.245 37.6946C274.682 36.4382 274.521 35.0501 274.781 33.706C275.042 32.3618 275.714 31.1219 276.71 30.1431C277.707 29.1643 278.985 28.4904 280.381 28.2068C281.778 27.9232 283.231 28.0425 284.557 28.5498C285.883 29.057 287.022 29.9293 287.83 31.0564C288.367 31.8048 288.744 32.6471 288.941 33.5352C289.138 34.4233 289.15 35.3397 288.976 36.2322C288.803 37.1248 288.448 37.9759 287.931 38.737C287.415 39.4981 286.746 40.1543 285.965 40.6681Z" fill="#DD6224"/>
<path d="M503.509 262.281C503.51 259.864 502.929 257.48 501.812 255.312C500.695 253.145 499.071 251.254 497.067 249.785C495.062 248.317 492.731 247.31 490.255 246.843C487.779 246.377 485.223 246.463 482.787 247.095C480.351 247.727 478.1 248.889 476.209 250.489C474.317 252.089 472.836 254.085 471.881 256.322C470.926 258.559 470.521 260.977 470.7 263.387C470.878 265.798 471.634 268.137 472.91 270.223C473.538 271.252 474.329 271.97 475.14 273.038L484.671 285.135C484.944 285.489 485.301 285.776 485.711 285.974C486.121 286.171 486.574 286.275 487.033 286.275C487.493 286.275 487.946 286.171 488.356 285.974C488.766 285.776 489.122 285.489 489.396 285.135L498.785 273.232C499.637 272.263 500.436 271.252 501.177 270.203C502.677 267.808 503.482 265.073 503.509 262.281ZM487.084 269.077C485.651 269.081 484.25 268.677 483.057 267.918C481.863 267.159 480.932 266.077 480.381 264.811C479.83 263.545 479.684 262.15 479.961 260.804C480.238 259.458 480.926 258.221 481.938 257.25C482.949 256.279 484.239 255.616 485.644 255.347C487.049 255.078 488.506 255.214 489.83 255.739C491.154 256.263 492.285 257.151 493.082 258.292C493.878 259.432 494.303 260.773 494.303 262.145C494.303 263.98 493.543 265.74 492.19 267.04C490.837 268.339 489.001 269.072 487.084 269.077Z" fill="#DD6224"/>
<path d="M877.846 211.853C879.785 210.309 881.327 208.357 882.352 206.15C883.376 203.944 883.857 201.54 883.755 199.127C883.654 196.713 882.973 194.355 881.766 192.234C880.559 190.113 878.858 188.287 876.796 186.897C874.733 185.507 872.363 184.591 869.871 184.219C867.379 183.847 864.831 184.03 862.424 184.754C860.017 185.477 857.817 186.721 855.994 188.39C854.17 190.059 852.773 192.108 851.91 194.377C851.484 195.503 851.403 196.552 851.058 197.814L847.449 212.571C847.341 213 847.339 213.446 847.443 213.875C847.546 214.304 847.753 214.704 848.046 215.043C848.339 215.382 848.711 215.651 849.132 215.829C849.553 216.006 850.011 216.088 850.47 216.067L866.023 215.368C867.344 215.373 868.663 215.315 869.978 215.193C872.865 214.774 875.582 213.62 877.846 211.853ZM861.846 204.105C861.846 204.093 861.841 204.081 861.833 204.071C860.924 203.024 860.358 201.742 860.206 200.388C860.054 199.027 860.328 197.653 860.992 196.441C861.656 195.229 862.68 194.233 863.936 193.579C865.192 192.925 866.622 192.643 868.046 192.769C869.469 192.894 870.822 193.421 871.932 194.283C873.042 195.146 873.86 196.304 874.282 197.612C874.704 198.92 874.711 200.318 874.302 201.63C873.893 202.941 873.087 204.107 871.985 204.979C870.52 206.148 868.631 206.714 866.732 206.554C864.839 206.395 863.088 205.527 861.859 204.139C861.851 204.13 861.846 204.118 861.846 204.105Z" fill="#DD6224"/>
</svg>
